<svg width="24" height="24" viewBox="0 0 24 24" fill="none" xmlns="http://www.w3.org/2000/svg">
<path d="M9 12V14.25C9 14.6642 9.33544 15 9.75 15H12C12.2007 15 12.3933 14.9194 12.5347 14.7759L20.3408 6.84122C20.7656 6.41602 21 5.85094 21 5.25C21 4.64906 20.7656 4.08398 20.3408 3.6592C19.4626 2.78175 18.0359 2.78175 17.1636 3.6548L9.22411 11.4653C9.08058 11.6063 9 11.799 9 12ZM10.5 12.3142L18.2197 4.7197C18.5127 4.42748 18.9873 4.42711 19.2803 4.72008C19.4224 4.86145 19.5 5.0497 19.5 5.25C19.5 5.4503 19.4224 5.63855 19.2759 5.78466L11.6858 13.5H10.5V12.3142ZM21 11.25V17.25C21 19.3176 19.3176 21 17.25 21H6.75C4.68239 21 3 19.3176 3 17.25V6.75C3 4.68239 4.68239 3 6.75 3H12.75C13.1646 3 13.5 3.33581 13.5 3.75C13.5 4.16419 13.1646 4.5 12.75 4.5H6.75C5.50927 4.5 4.5 5.50927 4.5 6.75V17.25C4.5 18.4907 5.50927 19.5 6.75 19.5H17.25C18.4907 19.5 19.5 18.4907 19.5 17.25V11.25C19.5 10.8358 19.8354 10.5 20.25 10.5C20.6646 10.5 21 10.8358 21 11.25V11.25Z" fill="url(#paint0_linear_130_84)"/>
<defs>
<linearGradient id="paint0_linear_130_84" x1="1.43684" y1="21" x2="22.7053" y2="21" gradientUnits="userSpaceOnUse">
<stop stop-color="#FEA027"/>
<stop offset="1" stop-color="#FD4D96"/>
</linearGradient>
</defs>
</svg>
